/* XPM */
static char *essai_collec_x641645695096[] = {
/* columns rows colors chars-per-pixel */
"64 64 32 1 ",
"  c #9E734B",
". c #9E744B",
"X c #9F744B",
"o c #A0754C",
"O c #A1754C",
"+ c #A4774D",
"@ c #A5784E",
"# c #AA7B4F",
"$ c #AF7F50",
"% c #AE7E51",
"& c #AF7F53",
"* c #B08051",
"= c #B38254",
"- c #B38255",
"; c #B48355",
": c #B78554",
"> c #B98656",
", c #BB8858",
"< c #BF8B59",
"1 c #C08B5A",
"2 c #C28D5B",
"3 c #C58F5C",
"4 c #CD9A69",
"5 c #D7A270",
"6 c #D8A370",
"7 c #B99F8C",
"8 c #C4A58E",
"9 c #8AE696",
"0 c #DBCBC1",
"q c #E3D8D0",
"w c #E9E3DF",
"e c #EEE9E6",
/* pixels */
"9999999999999999999999999999999999999999999999999999999999999999",
"9999999999999999999999999999999999999999999999999999999999999999",
"9999999999999999999999999999999999999999999999999999999999999999",
"9999999999999999999999999999999999999999999999999999999999999999",
"9999999999999999999999999999999999999999999999999999999999999999",
"9999999999999999999999999999999999999999999999999999999999999999",
"9999999999999999999999999999999999999999999999999999999999999999",
"9999999999999999999999999999999999999999999999999999999999999999",
"9999999999999999999999999999999999999999999999999999999999999999",
"9999999999999999999999999999999999999999999999999999999999999999",
"9999999999999999999999999999999999999999999999999999999999999999",
"9999999999999999999999999999999999999999999999999999999999999999",
"999999999999999q000000000000000000000000000000009999999999999999",
"9999999999999998********************************9999999999999999",
"9999999999999998*:>>>>>>>>>>>>>>>>>>>>>>>>>>>>**9999999999999999",
"9999999999999998*<3333333333333333333333333333**9999999999999999",
"9999999999999998*<3211111111111111111111<22<33**9999999999999999",
"9999999999999998*<3,;;;;;;;;;;;;;;;;;;;;---;33**9999999999999999",
"9999999999999998*<3,;;;;;;;;;;;;;;;;;;;;;;;;33**9999999999999999",
"9999999999999998*<3,;;;;;;;;;;;;;;;;;;;;;;;;33**9999999999999999",
"9999999999999998*<3,;;;;;;;;;;;;;;;;;;;;;;;;33**9999999999999999",
"9999999999999998*<3,;;;;;;;;;;;;;;;;;;;;;;;;33**9999999999999999",
"9999999999999998*<3,;;;;;;;;;;;;;;;;;;;;;;;;33**9999999999999999",
"9999999999999998*<3,;;;;;;;;;;;;;;;;;;;;;;;;33**9999999999999999",
"9999999999999998*<3,;;;;;;;;;;;;;;;;;;;;;;;;33**9999999999999999",
"9999999999999998*<3,;;;;;;;;;;;;;;;;;;;;;;;;33**9999999999999999",
"9999999999999998*<3,;;;;;;;;;;;;;;;;;;;;-;-:33**9999999999999999",
"9999999999999998*<3333333333333333333333333333**9999999999999999",
"9999999999999998*<3333333333333333333333333333**9999999999999999",
"9999999999999998*<3333333333333333333333333333**9999999999999999",
"9999999999999998*<3333333333333333333333333333**9999999999999999",
"9999999999999998*45555555555555555555555555555**9999999999999999",
"9999999999999998$45566666666666666666666666666$*9999999999999999",
"9999999999999997+$=;;*;;;;;*;;;**-----;*---*;;oo9999999999999999",
"9999999999999997O$;;:;*;;;;;;;;;:;;;;;:-;;;;;;oo9999999999999999",
"9999999999999997O$;;;;;;;;;;;;;;;;;;;;;;;;;;;;oo9999999999999999",
"9999999999999997O&;;;-*;;;*;--*;;;;-;;;;*:--;;OO9999999999999999",
"9999999999999997O&;% oooO oo oooXXXXXXXXO o ;;OO9999999999999999",
"9999999999999997O&;+      oo X OXX X  XX OO ;;OO9999999999999999",
"9999999999999997O&;%####%##%##%#%%#####%####;;OO9999999999999999",
"9999999999999997O&;%%%@%########@###########;;OO9999999999999999",
"9999999999999997O&;%%@#@####################;;OO9999999999999999",
"9999999999999997O&;%########################;;OO9999999999999999",
"9999999999999997O&;%########################;;OO9999999999999999",
"9999999999999997O&;%########@%@%############;;+O9999999999999999",
"9999999999999997O%;&########%@%%###%########;;oo9999999999999999",
"9999999999999997O&;;&;&&----&-;;%--*-*;;;*;;;;oo9999999999999999",
"9999999999999997O&;;:;:;;;;;;-;;:;;;-;;;;;;;;;oo9999999999999999",
"9999999999999997o+@@@@++++@@@@@@++@+++++++++@@oo9999999999999999",
"9999999999999997o oo+o  OOoooooooO+OOOOOo+o+ooo+9999999999999999",
"999999999999999eqeeeeqeeeeeqeqeqeqwwwwwwewwwwwww9999999999999999",
"9999999999999999999999999999999999999999999999999999999999999999",
"9999999999999999999999999999999999999999999999999999999999999999",
"9999999999999999999999999999999999999999999999999999999999999999",
"9999999999999999999999999999999999999999999999999999999999999999",
"9999999999999999999999999999999999999999999999999999999999999999",
"9999999999999999999999999999999999999999999999999999999999999999",
"9999999999999999999999999999999999999999999999999999999999999999",
"9999999999999999999999999999999999999999999999999999999999999999",
"9999999999999999999999999999999999999999999999999999999999999999",
"9999999999999999999999999999999999999999999999999999999999999999",
"9999999999999999999999999999999999999999999999999999999999999999",
"9999999999999999999999999999999999999999999999999999999999999999",
"9999999999999999999999999999999999999999999999999999999999999999"
};
