/* XPM */
static char *essai_porte_vrai_x641645713401[] = {
/* columns rows colors chars-per-pixel */
"64 64 106 2 ",
"   c #9E7248",
".  c #9E7349",
"X  c #9F734A",
"o  c #9F744A",
"O  c #9F744B",
"+  c #9F754C",
"@  c #A0744B",
"#  c #A0754B",
"$  c #A1754C",
"%  c #A0774F",
"&  c #A4774C",
"*  c #A4774D",
"=  c #A6794D",
"-  c #A7794E",
";  c #A87A4E",
":  c #A97A4F",
">  c #AA7B4F",
",  c #A17850",
"<  c #A27B54",
"1  c #A37C55",
"2  c #A47D57",
"3  c #A47F59",
"4  c #A5805B",
"5  c #A5815C",
"6  c #A6825D",
"7  c #A88561",
"8  c #A88662",
"9  c #AA8965",
"0  c #AC8D6B",
"q  c #AD8E6D",
"w  c #AE906F",
"e  c #B19574",
"r  c #B29777",
"t  c #B29878",
"y  c #B39A7A",
"u  c #B49B7A",
"i  c #B59E7E",
"p  c #B7A182",
"a  c #B4A78C",
"s  c #B4A78D",
"d  c #B5A88C",
"f  c #B5A88D",
"g  c #BCA98B",
"h  c #B8AB8F",
"j  c #BCAA8D",
"k  c #BEAC8F",
"l  c #B6AA90",
"z  c #B8AB90",
"x  c #B9AC90",
"c  c #BAAD91",
"v  c #BBAE93",
"b  c #B8AD94",
"n  c #BAAE96",
"m  c #BAAF97",
"M  c #BCAF94",
"N  c #BDB094",
"B  c #BEB195",
"V  c #BEB39E",
"C  c #BEB49E",
"Z  c #C0B093",
"A  c #C0B194",
"S  c #C2B396",
"D  c #C1B498",
"F  c #C4B69A",
"G  c #C4B79B",
"H  c #C4B79C",
"J  c #C4B89C",
"K  c #C0B5A1",
"L  c #C0B6A2",
"P  c #C1B7A4",
"I  c #C3B9A8",
"U  c #C7BFAE",
"Y  c #C8BFAF",
"T  c #8EE290",
"R  c #8FE291",
"E  c #90E292",
"W  c #92E394",
"Q  c #95E397",
"!  c #96E498",
"~  c #98E49A",
"^  c #9BE59C",
"/  c #9DE69F",
"(  c #C8C0AF",
")  c #C9C1B0",
"_  c #CCC4B5",
"`  c #CEC7B8",
"'  c #D0C9BC",
"]  c #D5CFC3",
"[  c #D6CFC4",
"{  c #D6D1C5",
"}  c #D8D2C7",
"|  c #D8D3C8",
" . c #D9D4C9",
".. c #DCD6CD",
"X. c #DEDAD1",
"o. c #DFDAD2",
"O. c #E0DCD4",
"+. c #E2DED7",
"@. c #E3DFD9",
"#. c #D6EAD1",
"$. c #E3E0D8",
"%. c #E6E2DC",
"&. c #E6E3DC",
"*. c #E9E6E1",
"=. c #EEEBE7",
"-. c #EAECE4",
/* pixels */
"/ / / / / / / / / / / / / / / / / / / / / / / / / / T &...} } ] } } } &.#./ / / / / / / / / / / / / / / / / / / / / / / / / / / ",
"/ / / / / / / / / / / / / / / / / / / / / ! @.` L a a a a f a a d f a a a a C _ +.Q / / / / / / / / / / / / / / / / / / / / / / ",
"/ / / / / / / / / / / / / / / / / / / &._ a a a f f a l M h h M h v n h f f a a f f ( +.^ / / / / / / / / / / / / / / / / / / / ",
"/ / / / / / / / / / / / / / / / ^ X.n f f f f B B D F F J F J J J F F F J D Z M f d f f f X.! / / / / / / / / / / / / / / / / / ",
"/ / / / / / / / / / / / / / / *.v a a a h D J F J J J F J F J F J F J F J J F J F D v f a f f &./ / / / / / / / / / / / / / / / ",
"/ / / / / / / / / / / / / ! ( a f f B D J J F J J F F J F J F J F J F J H F J F J F J F B f f d P T / / / / / / / / / / / / / / ",
"/ / / / / / / / / / / / =.f a a h D F J F J J F F J F F J F J F J F J F F J F J F J F J F J N d a l *./ / / / / / / / / / / / / ",
"/ / / / / / / / / / /  .l a f D J F J F J F F J J F J F D F F D F F D F J F J F J F J F J F J D f a f [ / / / / / / / / / / / / ",
"/ / / / / / / / / / ' a a v D F F J F J F J J F N y 9 4 2 + * @ $ $ 2 3 8 r k J F D J J J F J F J v f f Y / / / / / / / / / / / ",
"/ / / / / / / / / | a a v F F J J F J F J A r 4 O O O O + O + O + + X + O @ X < r Z J F F J F J F D B f a ' / / / / / / / / / / ",
"/ / / / / / / / X.a a v J F J F J J J D t @ @ @ O @ - - ; ; & O $ : - - - @ O O O O 0 Z J J F J J F F A a a { / / / / / / / / / ",
"/ / / / / / / *.a a z H F J F J J D p , @ @ @ : > > > > > ; - @ $ : : : > > - : @ O @ @ u A J J F J F F M a f X./ / / / / / / / ",
"/ / / / / / T a f h F J J F J F J q O + @ - > > > > > > > > - @ $ > > > > > > > > - @ @ O 5 B J J F J F J v f a =./ / / / / / / ",
"/ / / / / / K d f F J F F J J Z * O O + > > > > > > > > > > & O $ > > > > > > > > : - - $ @ , g F J F J F J v a n Q / / / / / / ",
"/ / / / /  .f f D J F J F J D 2 O @ ; > > > > > > > > > > > - O $ > > > > > > > > > > > > O O @ v F J F J F J f a I / / / / / / ",
"/ / / / E d f B D J J F J D 4 @ @ : > > > > > > > > > > > > & O $ > > > > > > > > > > > > ; O O , A F J F J F D a a *./ / / / / ",
"/ / / / ( a f F J F J F J 9 @ O - : > > > > > > > > > > > > & @ @ > > > > > > > > > > > > > : O @ 2 N J F J F J B a n Q / / / / ",
"/ / / -.f a D J F J F J r O O - > > > > > > > > > > > > > > - @ @ > > > > > > > > > > > > > > - @ @ 6 F J F J F F a a &./ / / / ",
"/ / / U a v F J J F F k O @ - > > > > > > > > > > > > > > > - @ @ > > > > > > > > > > > > > > > : $ $ i F J F J F B f v ^ / / / ",
"/ / Q a a D J F F J F 4 O @ - > > > > > > > > > > > > > > > & @ @ > > > > > > > > > > > > > > > > $ $ $ A F J F F D f f *./ / / ",
"/ / [ a f F J F F J p O + - > > > > > > > > > > > > > > > > - O & > > > > > > > > > > > > > > > > > O O w J F J F J v f U / / / ",
"/ / V a B J F J J D 2 @ - > > > > > > > > > > > > > > > > : & O @ > > > > > > > > > > > > > > > > > - O O N J J J F F f a T / / ",
"/ Q a a D F J F J k O O - : > > > > > > > > > > > > > > > > & @ $ > > > > > > > > > > > > > > > > > > O O y D J F J F a a &./ / ",
"/ $.a v J J F J D 8 O * > > > > > > > > > > > > > > > > > > - @ $ > > > > > > > > > > > > > > > > > > - O * J D J F H z a ' / / ",
"/ ( a M F J F J A , $ : > > > > > > > > > > > > > > > > > > - @ $ > > > > > > > > > > > > > > > > > > > O O g J F J F D a V / / ",
"^ n a D J F J F A $ + : > > > > > > > > > > > > > > > > > > & @ $ > > > > > > > > > > > > > > > > > > > @ O r J J F J F a a ! / ",
"! n a D F J F J i + $ : > > > > > > > > > > > > > > > > > > - O $ > > > > > > > > > > > > > > > > > > > - X 9 J F J F J f a -./ ",
"Q f f F J F J F 0 X - : > > > > > > > > > > > > > > > > > : & O $ > > > > > > > > > > > > > > > > > : : - O 4 J J F J F v a @./ ",
"W l f D J J J J 5 @ - > > > > > > > > > > > > > > > > > > > & O $ > > > > > > > > > > > > > > > > > > > : O * J J F J F h a +./ ",
"T a f D J F F J $ X : > > > > > > > > > > > > > > > > > > > - O $ > > > > > > > > > > > > > > > > > > > > @ O B F J F J h f { / ",
"E a a H F J F J , X - > > > > > > > > > > > > > > > > > > > - O $ > > > > > > > > > > > > > > > > > > > : @ O F J F J F f a { / ",
"E f f H J F J J % + - : > > > > > > > > > > > > > > > > > > - O $ > > > > > > > > > > > > > > > > > > > : @   J F J F F v a { / ",
"T d f F J F J J + O - > > > > > > > > > > > > > > > > > > > - O $ > > > > > > > > > > > > > > > > > > > > O   F J F J F h d { / ",
"E f f J F J F J , O ; > > > > > > > > > > > > > > > > > > > & O $ > > > > > > > > > > > > > > > > > > > > O   J F J F J h f { / ",
"E f f F J F F J , O > > > > > > > > > > > > > > > > > > > > & @ $ > > > > > > > > > > > > > > > > > > > > @   J J F J F h d { / ",
"E a f J F J J J + O - > > > > > > > > > > > > > > > > > > > - @ $ > > > > > > > > > > > > > > > > > > > : O   F F J F J h d { / ",
"E a f F J F J J , O - > > > > > > > > > > > > > > > > > > > ; O $ > > > > > > > > > > > > > > > > > > > > @   J J F J F v a { / ",
"E a f J F J F J , + ; > > > > > > > > > > > > > > > > > > > & O $ > > > > > > > > > > > > > > > > > > > > O   F F J F J N a { / ",
"E a f F J J J J + O ; > > > > > > > > > > > > > > > > > > > - O $ > > > > > > > > > > > > > > > > > > > > O O J J F J F h a { / ",
"E a f J D J J J , O ; > > > > > > > > > > > > > > > > > > > & O $ > > > > > > > > > > > > > > > > > > > > O . J F J J J h a { / ",
"E a f J F J F J , + - > > > > > > > > > > > > > > > > > > > & @ $ > > > > > > > > > > > > > > > > > > > > O   F J F J F h a { / ",
"E a f F J F J J + + : > > > > > > > > > > > > > > > > > > > - @ $ > > > > > > > > > > > > > > > > > > > > O   J F J F J M d { / ",
"E a f J F J F J , + ; > > > > > > > > > > > > > > > > > > > ; @ $ > > > > > > > > > > > > > > > > > > > > O   F J F J F h a { / ",
"E a f F J F J J + + ; > > > > > > > > > > > > > > > > > > > & O $ > > > > > > > > > > > > > > > > > > > > O   J F J F J M a { / ",
"E a f J F J F J , + ; > > > > > > > > > > > > > > > > > > > ; @ $ > > > > > > > > > > > > > > > > > > > > O   F J F J F h a { / ",
"E a f F J F J J + + ; > > > > > > > > > > > > > > > > > > ; & @ $ > > > > > > > > > > > > > > > > > > > > O   J F J F J M a { / ",
"E a f J F J F J + + - > > > > > > > > > > > > > > > > > > > & @ $ > > > > > > > > > > > > > > > > > > > > O @ F J F J F k a { / ",
"E a f F J F J J * O ; > > > > > > > > > > > > > > > > > > > & O $ > > > > > > > > > > > > > > > > > > > > O   J F J F J h a { / ",
"E a f F F J F J @ $ : > > > > > > > > > > > > > > > > > > > ; O + > > > > > > > > > > > > > > > > > > > > O   F J F J F k f { / ",
"E a f J J F J J + + - > > > > > > > > > > > > > > > > > > > - O + > > > > > > > > > > > > > > > > > > > > O   J F J F J h f { / ",
"E a f F F J F J , O - > > > > > > > > > > > > > > > > > > > = O # > > > > > > > > > > > > > > > > > > > > O   F J F J F v a { / ",
"E a f J J F J J , + - > > > > > > > > > > > > > > > > > = > = O & > > > > > > > > > > > > > > > > > > > > O   J F J F J h a { / ",
"E a f J F J J J @ O - > > > > > > > > > > > > > > > > > > > = O O > > > > > > > > > > > > > > > > > > > > O   F J F J F v d { / ",
"E a f F J F F J , O ; > > > > > > > > > > > > > > > > > > > = O & > > > > > > > > > > > > > > > > > > > > O   J F J F J h d { / ",
"E a f J F J F J , + > > > > > > > > > > > > > > > > > > > > = O O > > > > > > > > > > > > > > > > > > > > O   F J F J F v a { / ",
"E a f F J F J J * O - > > > > > > > > > > > > > > > > > > > = @ O > > > > > > > > > > > > > > > > > > > > O   J F J F J h a { / ",
"E a d J F J F J , + > > > > > > > > > > > > > > > > > > ; ; & O & > > > > > > > > > > > > > > > > > > > > @   F J F J F v d { / ",
"T a f F J F J J + O - > > > > > > > > > > > > > > > > > > ; ; O O > > > > > > > > > > > > > > > > > > > > @   J F J F J h d { / ",
"E f d J F J J J , O - > > > > > > > > > > > > > > > > > > > ; O @ > > > > > > > > > > > > > > > > > > > > O   J J F J F v a { / ",
"E a d F J F F J , + - ; > > > > > > > > > > > > > > > > > > & O & > > > > > > > > > > > > > > > > > > > > O   J F J F J h a { / ",
"E a f F D J J J O O > > > > > > > > > > > > > > > > > > > > - O + > > > > > > > > > > > > > > > > > > > > O   D J F J F v d { / ",
"E f f J J J J J , O > > > > > > > > > > > > > > > > > > > > - O & > > > > > > > > > > > > > > > > > > > > O   J F J F J h d { / ",
"T a f F J J J J , O O O O O O O O + & + + + & O @ @ O O @ & O O O O O O & @ O O O O & + O + * O O O O O O O O F J F J F v a { / ",
"E a f J J J J J + O O O O O O O O O . O O O O O O @ @ O O O O O O O O O O @ O O O O O O O O O @ . O O O O O   J F J F J h a { / "
};
