/* XPM */
static char *essai_porte_vrai_x321645713401[] = {
/* columns rows colors chars-per-pixel */
"32 32 92 1 ",
"  c #9F744B",
". c #A0744B",
"X c #A3764C",
"o c #A3774C",
"O c #A2774E",
"+ c #A5774D",
"@ c #A5784D",
"# c #A6784D",
"$ c #A6794D",
"% c #A6784E",
"& c #A97A4E",
"* c #A97A4F",
"= c #AA7B4F",
"- c #A27952",
"; c #A27A52",
": c #A27A53",
"> c #A37C56",
", c #A6815C",
"< c #A88662",
"1 c #AA8865",
"2 c #AC8E6D",
"3 c #B19676",
"4 c #B19878",
"5 c #B29879",
"6 c #B29A7B",
"7 c #B39B7C",
"8 c #B59D7E",
"9 c #B6A081",
"0 c #B8A385",
"q c #B8A486",
"w c #BAA789",
"e c #BBA88A",
"r c #BDAB8E",
"t c #BDAC8F",
"y c #B6AC90",
"u c #B7AC91",
"i c #B9AC91",
"p c #B8AC92",
"a c #B9AD92",
"s c #BAAD92",
"d c #BEAE91",
"f c #BCAF94",
"g c #B8B096",
"h c #BDB094",
"j c #BFB296",
"k c #B0BE95",
"l c #BAB299",
"z c #BDB79F",
"x c #BFBBA3",
"c c #C0B397",
"v c #C2B497",
"b c #C2B498",
"n c #C3B69A",
"m c #C3B69B",
"M c #C4B69A",
"N c #C4B79B",
"B c #C2BEA8",
"V c #C3BEA8",
"C c #C7BEAD",
"Z c #A3C78F",
"A c #A4C890",
"S c #A7CA95",
"D c #ACCC9B",
"F c #AFCE9E",
"G c #A6D99E",
"H c #9FE49F",
"J c #9DE69F",
"K c #BAC8A5",
"L c #BBC8A6",
"P c #B9CBA6",
"I c #BDCAAA",
"U c #BFCEAE",
"Y c #AFDFAA",
"T c #B0D0A1",
"R c #B1D2A3",
"E c #B2D2A4",
"W c #B5D4A8",
"Q c #B9D8AE",
"! c #BBDAB1",
"~ c #BDDCB5",
"^ c #9FE6A1",
"/ c #A0E4A0",
"( c #A1E6A2",
") c #AFE1AA",
"_ c #AFE1AB",
"` c #B0E0AA",
"' c #B2E3AF",
"] c #B3E5B1",
"[ c #C0CEAF",
"{ c #CBC3B3",
"} c #C2D1B2",
"| c #C2E3BD",
/* pixels */
"JJJJJJJJ^JJ!DLCCC{LR)JJJJJJJJJJJ",
"JJJJJJJ^`IliihjjcjhiyVW/JJJJJJJJ",
"JJJJJJJ[yimMNMNmcmNNmjuxGJJJJJJJ",
"JJJJJYVimmmMMMMmNmmNNNmji}JJJJJJ",
"JJJJYlimMMM03>;;;;<4rmNNmiL(JJJJ",
"JJJ'VtNmM0,O++*o$=$$O2dMmcuU(JJJ",
"JJJktmNm2+*=**=o$**=*O>0mMmuQJJJ",
"JJRymmm2o**===*o$*==**$O0Nmjf'JJ",
"J]lcMm3O*======o$=====**;tmNtIJJ",
"JFiMmwO$*======o$=======@,MNmu'J",
"JzcNm<$========oo=======*O8NmyFJ",
"`ymNeO*========o*========@,Mch{(",
"RiMN5$=========oo========*OtNNy/",
"ShMM1$========*o$*=======*O9NNu|",
"ZiNM>**========o$=========O7NNi~",
"ZhNM;***=======o$=========$7NNi!",
"ZjMM$*========*o+*========+7MMi!",
"ZdMm;*=========o$*========+7MMi!",
"ZdMM;*=========o$=========o5NNi!",
"AhMb;*=========.$=========#5NNi!",
"Zhmm;**========$+=======**O7NNi!",
"Zhmm;+*========.*=======**+7NNj!",
"ZhMm;*========*oo=======*=+5NNi!",
"ZhMm$*=========o#=========$7NNi!",
"ZhNN;***======*@*=========+5mNi!",
"ZhNv;*=*======*o*=========+7NNi!",
"ZhMc@*=========oo*========$8NNi!",
"ZhNm;*=========o@=========+5NNi!",
"ZhNM;**========o@=======**O7NNf!",
"ZjNM;*=========o$====*===*+5NNi!",
"ZhMcO*==*=====*o@*==****==O7mmi!",
"ZhMM;  o.o.........o.   Oo 7mmf!"
};
