/* XPM */
static char *_f6e0df7bf2b4769a5368fc82adaa60ajIo1DKjF2wpVhI2j[] = {
/* columns rows colors chars-per-pixel */
"64 64 69 1 ",
"  c #398C58",
". c #3D925C",
"X c #3E985F",
"o c #3F9A60",
"O c #438E5D",
"+ c #40975F",
"@ c #439460",
"# c #4A9163",
"$ c #409C62",
"% c #519467",
"& c #55956A",
"* c #59976D",
"= c #5D986F",
"- c #5E9871",
"; c #639B74",
": c #44A166",
"> c #6FA07E",
", c #70A17F",
"< c #65DD75",
"1 c #68DD77",
"2 c #6DDE7C",
"3 c #70DF7F",
"4 c #75A383",
"5 c #79A586",
"6 c #7CA688",
"7 c #7FA98C",
"8 c #7DDA89",
"9 c #82AA8E",
"0 c #86AC91",
"q c #89AE94",
"w c #8CB096",
"e c #8FB198",
"r c #93B39C",
"t c #99B7A2",
"y c #9DBAA5",
"u c #A0BBA7",
"i c #A4BEAB",
"p c #93D99C",
"a c #A8C1AF",
"s c #A7DAAD",
"d c #ACC3B2",
"f c #B0C6B6",
"g c #B3C7B9",
"h c #B4C9B9",
"j c #BCCDC1",
"k c #BECEC3",
"l c #BFCFC3",
"z c #C1D1C5",
"x c #C3D3C7",
"c c #C7D4CA",
"v c #C6D6CA",
"b c #CCD6CF",
"n c #C8DFCB",
"m c #CCD9CF",
"M c #CCD9D0",
"N c #CFDCD3",
"B c #D6DFD9",
"V c #D5E0D8",
"C c #D6E0D9",
"Z c #D6E3D8",
"A c #DAE4DD",
"S c #DDE5DF",
"D c #DDE6E0",
"F c #DEE6E1",
"G c #E1E7E3",
"H c #E0E8E2",
"J c #E3EAE4",
"K c #E3EAE5",
"L c #E6EBE7",
/* pixels */
"3333333333333333333333333333333333228333333333333333333333333333",
"3333333333333333333333333333333332221123313333333333333333333333",
"33333333333333333333333333333382<myrtran<82833333333333333333333",
"3333333333333333333333332332332F4+     @7dddS3333333333333333333",
"3333333333333333333322Fdqq0rz<<6           .&H223333333333333333",
"333333333333333333332a#      ,9.  XoooX      0823333333333333333",
"33333333333333333382i            o$o$$$XX.X  *283333333333333333",
"3333333333333333222z#  oXXXX.   Xo$$o$$o$$o  5Gs3333333333333333",
"33333333333333333310  oo$$$$XXX+o$:$::$$o$o.   4h<33333333333333",
"333333333333333322JO .o$$$$$$:+$:::::::::$oX    Xw83333333333333",
"333333333333222Ciir  .oo$:::::::::::::::::o$o.    a2333333333333",
"33333333333328CO     .oo::::::::::::::::::$$$$$o  $Z333333333333",
"333333333332330      $$$::::::::::::::::::::$$$$.  r823333333333",
"333333333332327  ++X$$$$$::::::::::::::::::::$$$X  ,133333333333",
"333333333382md=  $$$$$$+.+:::::::::::::::$::::$$$  ;<23333333333",
"33333333Juq6+.   $$$::$ .+::::::::::::::Xo$:::$$$. .,eiC<3333333",
"3333333<4      .Xoo::::o+$::::::::::::::XX:::::$XX      eS281333",
"3333332N     .oo$$::::::::::::::::::::::$:::::::$$       4S83333",
"3333333v  .Xo$$$::::::::::::::::+X.X::::::::::::::$oooX   y13333",
"3333333A+  Xooo::::::::::$:::::$....:::::::::::::::$oX$X   F3333",
"3333333<w  X$$+$:::$:$:$+O+::::+  +O$::::::::::::::$$$$$.  a3281",
"333333na.  X$X:::$$+..$$ +.::::+.. .::::::::::::::::$$$$X  %7C22",
"33333A4   .$$$::::+  +@$. +:::::$++$::::::::::::::::::$$X   .:S8",
"3333<w   .X$X:::::..O +:::::::::::::::::::::::::::::::$$$X.  X71",
"3333m   Xo:X$:::::$++O$::::$++++::::::::::::::::::::::$$$$$X  >2",
"3333r  .$$o$++++$:$$$$$::::$ . O:::::::::::::::::::::$$$$$X   h2",
"3332# .o$$$X.+O+.+%::::$:::@O ..$:::::::::::::::::::::$$$$X .722",
"3333   o$$$.     .$:::$+:::$+ .+:::::::::::::::::::::::$$$X  >N8",
"3332+  $$$X.. ..+ +$$$++$:::$$$%:::::::::::::::::::::::$$$X.  -S",
"32<y   $o$X... O ++$::+@:::::::::::::::::::::::::::::::$$$$X  .r",
"3pw   .$$$o. O. O +$:::::::::::::::::::::::::::::::::::$$$$$X  &",
"2y   .+$$$:X+  + ++$:::::::::::::::::::::::::::::::::::$$$$X$X  ",
"F#  o$o$$$:$.. o.o:::::::::::::::::::::::::::::::::::::$+:$$$X  ",
"i  .o$$$$$$:$$ooo$::::::::::::::::::::::::::::::::::::$$oX$o$.  ",
"t  o$$$$$$$:$:::::$$:::::::::::::::::::::::::::::::::::+:$$$X.  ",
"e .o$oo$$$$$::::ooXXo$::::::::::::::::::::::::::::::::::X$$$X  9",
"i  o$$o$$$$$::::o o XX$::::::::::::::::::::::::::::::::$$$oo  #v",
"b+  $o$$$$$$:::o   .  $::::::::::::::::::::::::::::::::$$oo.  r1",
"16  .$$$$$$$:::o ...XX:::::::::::::::::::::::::::::::::$$o$o  %B",
"8B  .$$$$$$$::::... Xo:::::::::::::::::::::::::::::::::$$$$o   r",
"1l   Xooo:o:::::$.@.@$::$$:::::::::::::::::::::::::::$$o$$$$o  &",
"8q  $$ooo:ooo::::$$:$:::oXo:::::::::::::::::::::::::$$$$:o$$oX  ",
"1t   $$$$oo$o:::::$:::::$Xo:::::::::::::::::::::::::$$$$o:o$o.  ",
"1F&  $$$$$$$oooo$$$::::::$$::::::::::::::::::::::$:$$$$$ooo$oX  ",
"1<g  Xoo$$$$$$o$$o$$::::::::::::::::::::::::::::$$$$$$$$o$ooo   ",
"88z. $ooo$$oo$$$$$. $:::::::::::::::::::::::::::$$$$o$$$:$oo.  6",
"<1B&  oo$$$$$$o$$oo $:$::::::::::::::::::::::::$$$$$$$o:ooX.  #z",
"<8<5  oo$o$o$$$$$$$$$$$$o:::::::::::::::::::::$$$$$$$$oooo   .g<",
"118n$$  o o  ooo$$$$o$$$$$$::::::$$::::::::$$$$$$$$$$$$$$.  4m12",
"8<1<n:        ooo$$$$$$$$$$$::::$$$$$$$:::$$$$$$$$$$ooooo  &V122",
"8<8<<n6X       o$$$o$o$$$$$$$$$$$$$$$$$$:$$$$$$$$$$oo.     e8222",
"<<818<<Glljb&  o$$$$$$$$$$$$o$$o$$$$$$o$$$$$o$$$$$$$o     -F<222",
"18<8<<<<8111y  $ooo$$$oo$$$$$$$$$$$$$$$$$$$$$$$$$$oo   47rH11181",
"1<<8<88<<<81F   Xooo$$$o$$$$$o$$$$$$$$$$$$$$oo$o$X.   6Fp<222222",
"8<<<88<<18812i    X XXXo$$$$$o$oooo$$$$$$$o$o:ooX    5L222222122",
"<88<<<<81<118pi         $$$$$$$$ooo$$o$$$$$$oooo   @yL2222222<82",
"<8<<<8<<8<18<<<n::$o.   oooooooo    oooooooooooo X4Z<88<22<18<8<",
"8<88<<8881<8<8<<8nnnMy  .oooooX      XoooooooX   o8<<<<<2281<8<8",
"<88<8<<<<<118<8<<<8<8n4    XX.  X7o              5C8<8<8218<8<8<",
"8<<8<88<<88<<<8<8<<<88Z4      .:f8A4.         4gN8<8<<<88118<8<8",
"<<8<<8<8<8<888<<<<88<<8A74  $$7s8<<<l78y8o  Xos<88<<<<8<<8<88<8<",
"8<<88<8<8<8<<<<88<<<88<<8SMnnn88<<8<88888s4 :s8888<88<<88<8<<8<8",
"8<8<<8<8<88<<<8<8<<8<<<8<8888<<<<8<8<8888<<<88<<<<8<<8<8<8<8<88<",
"<8<88<8<8<<8888<<<8<<8<8<<<8<<88<<<8<<<8<<8<<88<88<88<8<8<8<88<8"
};
