/* XPM */
static char *essai_porte_ouverte_vrai_x641645713084[] = {
/* columns rows colors chars-per-pixel */
"64 64 128 2 ",
"   c #494A4B",
".  c #4B4B4C",
"X  c #4B4C4C",
"o  c #4C4C4C",
"O  c #4C4C4D",
"+  c gray30",
"@  c #4F4F4E",
"#  c #535250",
"$  c #595754",
"%  c #5A5855",
"&  c #5D5B56",
"*  c #6F5C4C",
"=  c #715F4E",
"-  c #605E58",
";  c #64615C",
":  c #746F65",
">  c #8C6A4B",
",  c #9F744B",
"<  c #8F6F51",
"1  c #A1754C",
"2  c #A0764E",
"3  c #A4774C",
"4  c #A4774D",
"5  c #A9794D",
"6  c #A97A4D",
"7  c #AA7A4E",
"8  c #AA7B4F",
"9  c #A37A51",
"0  c #AA7C50",
"q  c #AB7D52",
"w  c #AB7D53",
"e  c #AC7F55",
"r  c #AC8055",
"t  c #A6805B",
"y  c #AD8258",
"u  c #AD835A",
"i  c #888172",
"p  c #9A917E",
"a  c #9B917E",
"s  c #AC8A67",
"d  c #B08A62",
"f  c #B18C66",
"g  c #B3926E",
"h  c #B49571",
"j  c #B69774",
"k  c #B69876",
"l  c #9F9682",
"z  c #A09682",
"x  c #A39A85",
"c  c #A59B86",
"v  c #A79D87",
"b  c #AEA38C",
"n  c #BCA686",
"m  c #B2A58D",
"M  c #B4A78C",
"N  c #B4A78D",
"B  c #B6A98D",
"V  c #BEAA8B",
"C  c #B8AB8F",
"Z  c #BEAB8D",
"A  c #B4A990",
"S  c #B6AA90",
"D  c #B8AB90",
"F  c #B9AC91",
"G  c #BBAE92",
"H  c #BFAE91",
"J  c #BCAF93",
"K  c #BAAE96",
"L  c #BBAF98",
"P  c #BDB094",
"I  c #BFB296",
"U  c #BDB29D",
"Y  c #BFB49F",
"T  c #C0AF92",
"R  c #C0B397",
"E  c #C0B398",
"W  c #C3B598",
"Q  c #C3B69A",
"!  c #C3B79B",
"~  c #C4B79B",
"^  c #C4B79C",
"/  c #C4B89C",
"(  c #C0B6A1",
")  c #C1B7A4",
"_  c #C2B8A4",
"`  c #C4B9A7",
"'  c #C4BAA9",
"]  c #C5BCAA",
"[  c #C6BDAC",
"{  c #C8BFAE",
"}  c #8FE291",
"|  c #91E293",
" . c #94E396",
".. c #95E397",
"X. c #96E498",
"o. c #97E499",
"O. c #98E49A",
"+. c #99E59B",
"@. c #9BE59C",
"#. c #9CE59E",
"$. c #9DE69F",
"%. c #BDE7BB",
"&. c #C9C1B0",
"*. c #CAC2B2",
"=. c #CFC7BA",
"-. c #D4CEC2",
";. c #D5CFC3",
":. c #D6D1C5",
">. c #D7D1C6",
",. c #D8D1C7",
"<. c #D8D3C8",
"1. c #D9D3C9",
"2. c #D9D4CA",
"3. c #DCD6CD",
"4. c #DDD8CF",
"5. c #DFDBD2",
"6. c #E0DCD4",
"7. c #E2DED6",
"8. c #D6EAD2",
"9. c #E5E2DB",
"0. c #E6E3DD",
"q. c #E7E4DE",
"w. c #E8E4DE",
"e. c #E0EBDB",
"r. c #E9E5E0",
"t. c #ECE9E4",
"y. c #EAECE4",
"u. c #EFECE8",
/* pixels */
"$.$.$.$.$.$.$.$.$.$.$.$.$.$.$.$.$.$.$.$.$.$.$.O.%.w.3.=.] ) ) Y ) ) ( =.1.q.e.O.$.$.$.$.$.$.$.$.$.$.$.$.$.$.$.$.$.$.$.$.$.$.$.$.",
"$.$.$.$.$.$.$.$.$.$.$.$.$.$.$.$.$.$.$.$.X.r.*.M B M M M M M M M M M M M M M M M [ q. .$.$.$.$.$.$.$.$.$.$.$.$.$.$.$.$.$.$.$.$.$.",
"$.$.$.$.$.$.$.$.$.$.$.$.$.$.$.$.$.$.| *.B m B M B B F I I R I Q R R R I C B B m N N B ' %.O.$.$.$.$.$.$.$.$.$.$.$.$.$.$.$.$.$.$.",
"$.$.$.$.$.$.$.$.$.$.$.$.$.$.$.$.} ( B M m B F Q Q ~ Q Q ~ ~ Q ~ ~ ~ ~ ~ ~ ~ Q Q H B M B B Y 8.$.$.$.$.$.$.$.$.$.$.$.$.$.$.$.$.$.",
"$.$.$.$.$.$.$.$.$.$.$.$.$.$.X.*.B m M C Q ~ ~ ~ ~ ~ ~ ~ ~ ~ ~ ~ ~ ~ Q / ~ ~ ~ ~ ~ ~ Q C M B B [  .$.$.$.$.$.$.$.$.$.$.$.$.$.$.$.",
"$.$.$.$.$.$.$.$.$.$.$.$.$.9.K M M C Q ~ Q ~ ~ ~ ~ ~ ~ ^ ~ ~ ~ Q ~ ~ / Q ~ ~ ~ ~ ~ ~ Q ~ Q F m M S 3.$.$.$.$.$.$.$.$.$.$.$.$.$.$.",
"$.$.$.$.$.$.$.$.$.$.$.$.;.M M B R ~ ~ ~ Q ~ ~ ~ ~ ~ ~ Q ~ Q ^ Q ~ ~ Q ^ ~ ~ ~ ~ ~ ~ ~ ~ Q ~ Q B N M =.O.$.$.$.$.$.$.$.$.$.$.$.$.",
"$.$.$.$.$.$.$.$.$.$.O.' M M D ~ ~ ~ ~ ~ ~ ~ ^ / ~ ^ / m v l l l l l v m Q / ~ ~ ~ ~ ~ ~ ~ ~ ~ ~ P M M (  .O.$.$.$.$.$.$.$.$.$.$.",
"$.$.$.$.$.$.$.$.$.X.U M M I ~ ~ ^ ^ ^ ~ ~ ~ ^ m p :     . . . @ @ . . . . ; i b Q ^ ^ ~ ! / / ~ Q I M B K  .$.$.$.$.$.$.$.$.$.$.",
"$.$.$.$.$.$.$.$.O.` M M R ~ ~ ~ ^ / Q ^ E v - @ . . @ @ @ . @ . . @ . @ . @ # @ $ l I ~ Q ! ~ ~ ~ Q Q B m (  .$.$.$.$.$.$.$.$.$.",
"$.$.$.$.$.$.$.$.{ M M R ~ ~ ~ ~ ! ! Q v % . @ . . @ o @ @ . . @ @ . @ . @ . @ . @ . # x Q ^ ^ Q ~ ~ ~ Q B m ( $.$.$.$.$.$.$.$.$.",
"$.$.$.$.$.$.$.,.M M I ~ ~ ~ ~ ~ ! H : @ @ @ . @ . . @ . . @ . @ . @ . @ . @ . @ . @ . @ & S Q ^ ~ ~ ~ Q Q M M &.$.$.$.$.$.$.$.$.",
"$.$.$.$.$.$.0.M N H ~ ~ ~ ~ ~ ~ m & @ @ . . . @ @ @ X @ @ . . @ @ . @ . @ . @ . @ . @ . @ # p Q ~ ~ ~ ~ ~ R M N :.$.$.$.$.$.$.$.",
"$.$.$.$.$.} S M F ~ ~ ~ ~ ~ ~ c @ . @ . @ @ @ . O O . @ @ . @ . . @ . @ . @ . @ . @ . @ . @ @ i ~ ~ ~ ~ ~ ~ H N B u.$.$.$.$.$.$.",
"$.$.$.$.$.*.M B ! ! ~ ~ ~ Q m @ . @ . @ . @ @ . . . . @ . @ . @ @ . @ . @ . @ . @ . @ . @ . @ . p Q ~ ~ ! / ^ P m P X.$.$.$.$.$.",
"$.$.$.$.0.M M Q / ! ~ ~ ~ H < @ . @ @ . . @ @ . @ @ @ . . @ @ . . @ . @ . @ . @ . @ . @ . @ . @ = Z ~ ~ Q ^ ^ ! N N 1.$.$.$.$.$.",
"$.$.$.$.U M D ^ ~ ~ ~ ~ ~ e > O @ O @ . . @ @ . . @ @ @ . @ @ . @ . @ . @ . @ . @ . @ . @ . @ . = 3 Z / ~ ~ ~ ~ I M B  .$.$.$.$.",
"$.$.$.5.M M ~ ^ ~ ~ ~ ~ s , > @ X @ @ X @ . @ . @ . . . . @ @ . . @ . @ . @ . @ . @ . @ . @ . @ * , 9 Q ~ ~ ~ ~ ^ B M ;.$.$.$.$.",
"$.$.$.( m H ~ ~ ~ ~ ) j 1 1 > O @ O @ @ . @ . @ @ . . . . @ @ @ @ . @ . @ . @ . @ . @ . @ . @ . * , , g ~ ~ ~ ~ ~ Q M m | $.$.$.",
"$.$.y.M M ~ ~ ~ ^ ^ ^ e 4 1 > O @ . X O @ . . @ @ . @ @ @ . . . . @ . @ . @ . @ . @ . @ . @ . @ * , 3 q Z ~ ~ ~ ~ ~ B M 5.$.$.$.",
"$.$.*.M F ~ ~ ~ ^ ^ h 0 3 , > . . . . @ @ @ . @ @ . . @ . . . @ @ . @ . @ . @ . @ . @ . @ . @ . * , 1 0 f Q ~ ~ Q ^ I B K $.$.$.",
"$.O.K M R ~ ~ ~ ^ H e 0 3 , > @ @ @ @ . . . . @ @ . @ . @ @ @ . . @ . @ . @ . @ . @ . @ . @ . @ * , , 8 8 V ~ ~ ^ Q Q B m 8.$.$.",
"$.} B M ~ ~ ~ ~ ^ n 0 0 3 , > . . @ @ . . . . @ . @ . @ . @ @ . @ . @ . @ . @ . @ . @ . @ . @ . * , , 0 8 g ^ ^ Q ! Q B M 3.$.$.",
"$.2.M C ~ ~ ~ ~ ^ e 0 q 3 , > . . @ @ . @ @ @ . . @ @ . . @ @ . . @ . @ . @ . @ . @ . @ . @ . @ * , 3 5 8 0 ^ Q ~ / Q I M *.$.$.",
"$._ m R ~ ~ ~ ~ R q 8 8 3 , > @ . @ @ . @ . . @ @ @ . @ . @ @ @ @ . @ . @ . @ . @ . @ . @ . @ . = 1 1 7 8 8 n ~ ~ ~ ~ Q M F $.$.",
"O.K B R ~ ~ ~ ~ Z 8 8 8 3 , > @ @ . @ . @ . @ . . . . @ @ . . . . @ . @ . @ . @ . @ . @ . @ . @ * 1 1 7 8 8 j ~ ~ ~ ~ ~ M M } $.",
"X.S M Q ~ ~ ~ ~ j 8 8 8 3 , > . . @ . @ . @ . @ . . . @ @ . . . @ . @ . @ . @ . @ . @ . @ . @ . * , 1 7 0 8 f ~ ~ ~ ~ ~ S M t.$.",
"..B M Q ~ ~ ~ ~ d 8 8 8 3 , > @ @ . . @ . @ @ . @ @ @ . @ . @ @ . @ . @ . @ . @ . @ . @ . @ . @ * , 1 0 5 8 u ~ ~ ~ ~ ~ D M 7.$.",
"} B M ^ Q / ~ ~ d 8 8 8 3 1 > . @ . . @ . @ @ . . @ @ . . @ . @ @ . @ . @ . @ . @ . @ . @ O O O * , , 8 8 8 r ~ ~ ~ ~ ~ F M 1.$.",
"| m B / ^ ^ ~ ^ e 8 8 8 3 , > . @ . . @ . @ @ . . @ @ . @ . @ . . @ . @ . @ . @ . @ . @ O O @ @ * , 1 5 8 0 7 ~ ~ ~ ~ ~ F B >.$.",
"} M B Q ~ ~ ~ / q 8 8 8 3 , > @ . . . @ . @ @ @ . @ @ @ @ @ . . @ . @ . @ . @ . @ . @ . O @ O O = , 1 8 8 5 8 ~ ~ ~ ~ ~ B M >.$.",
"| M B Q ~ ~ ~ / e 8 8 8 3 , > @ @ @ @ . @ . . . @ . . . . . @ @ . @ . @ . @ . @ . @ . @ O O @ . * 1 , 8 8 8 8 ~ ~ ~ ~ / F M >.$.",
"| M B ~ ~ ~ ~ / q 0 0 q 3 , > @ . @ . @ . @ . @ . @ . @ . @ . @ @ . @ . @ . @ . @ . @ . @ . @ . * , 3 8 5 8 5 ~ ~ ~ ~ ~ G M :.O.",
"| M M ~ ~ ~ ~ / q 0 5 5 3 , > X @ . @ . @ . @ . @ . @ . @ . @ . . @ . @ . @ . @ . @ . @ . @ . @ * , 1 5 5 r 6 ~ ~ ~ ~ ~ G M <.@.",
"| M M ^ ~ ~ ~ ^ q 5 8 8 3 , > @ . @ . @ . @ . @ . @ . @ . @ . @ @ . @ . @ . @ . @ . @ . @ . @ . = , 1 8 5 8 8 ~ ~ ~ ~ ~ C M <.@.",
"| M B ~ ~ ~ ~ ^ e 0 q 8 4 , > O @ . @ . @ . @ . @ . @ . @ . @ . . @ . @ . @ . @ . @ . @ . @ . @ * , , 5 8 8 5 Q ~ ~ ~ ~ F M <.@.",
"} M M ~ ! ! / ^ q 5 0 0 4 , > @ . @ . @ . @ . @ . @ . @ . @ . @ @ . @ . @ . @ . @ . @ . @ . @ . * , 1 5 e 8 5 Q ~ ~ ~ ~ I M :.@.",
"| M B ~ ! ! ~ ^ q 0 0 5 1 , > O @ . @ . @ . @ . @ . @ . @ . @ . . @ . @ . @ . @ . @ . @ . @ . @ * , 1 8 5 8 5 Q ~ ~ ~ ~ C M <.@.",
"| M B Q Q ! ^ ^ e 0 0 5 5 , > @ . @ . @ . @ . @ . @ . @ . @ . @ @ . @ . @ . @ . @ . @ . @ . @ . * , 1 8 8 8 5 ~ ~ ~ ~ ~ C M ,.@.",
"| m B Q ^ ^ ^ ^ 0 5 0 0 1 , > O @ . @ . @ . @ . @ . @ . @ . @ . . @ . @ . @ . @ . @ . @ . @ . @ * , 1 8 5 e 5 ~ ~ ~ ~ ~ F M <.$.",
"} M B Q Q ~ ~ ~ 0 8 7 7 1 1 > @ . @ . @ . @ . @ . @ . @ . @ . @ @ . @ . @ . @ . @ . @ . @ . @ . * , , 5 6 r 8 ~ ~ ~ ~ ~ I M :.@.",
"| M B ~ / ~ ~ / e 7 0 8 3 , > O @ . @ . @ . @ . @ . @ . @ . @ . . @ . @ . @ . @ . @ . @ . @ . @ * , 3 8 8 5 5 ~ ~ ~ ~ ~ C M <.@.",
"} M M / ~ ~ ~ / e 7 8 8 3 , > @ . @ . @ . @ . @ . @ . @ . @ . @ @ . @ . @ . @ . @ . @ . @ . @ . * , 3 5 5 8 5 ~ ~ ~ ~ ~ C M ,.@.",
"| M B Q ~ ~ ~ / 0 0 5 8 3 , > @ @ . @ . @ . @ . @ . @ . @ . @ . . @ . @ . @ . @ . @ . @ . @ . @ * , 3 6 r 5 8 ~ ~ ~ ~ ~ R M <.$.",
"} B B Q ~ ~ ~ / q 8 8 8 , , > @ . @ . @ . @ . @ . @ . @ . @ . @ @ . @ . @ . @ . @ . @ . @ . @ . * , , 8 7 7 7 ~ ~ ~ ~ ~ C M ,.@.",
"} m B / ~ ~ ~ / q 8 8 8 3 , > . @ . @ . @ . @ . @ . @ . @ . @ . . @ . @ . @ . @ . @ . @ . @ . @ * , 3 8 8 0 7 ~ ~ ~ ~ ~ C M <.@.",
"| m B Q ~ ~ ~ / q 8 5 e 3 3 > @ . @ . @ . @ . @ . @ . @ . @ . @ @ . @ . @ . @ . @ . @ . @ . @ . * , , e 7 7 8 ~ ~ ~ ~ ~ F M ,.@.",
"| M B ~ ~ ~ ~ / q 8 8 8 , , > . @ . @ . @ . @ . @ . @ . @ . @ . . @ . @ . @ . @ . @ . @ . @ . @ * , , 5 7 7 8 ~ ~ ~ ~ ~ F M <.@.",
"| M B Q ~ ~ ~ / q q 8 8 1 , > @ . @ . @ . @ . @ . @ . @ . @ . @ . @ . @ . @ . @ . @ . @ . @ . @ * , 3 8 8 r 5 ~ Q ~ ~ ~ P M :.@.",
"} M B ~ ~ ~ ~ / q 8 8 8 5 , > . @ . @ . @ . @ . @ . @ . @ . @ . @ . @ . @ . @ . @ . @ . @ . @ . * , , 8 5 8 5 W ~ ~ ~ ~ C M <.@.",
"} B B Q ~ ~ ~ / q 8 8 8 1 , > O . @ . @ . @ . @ . @ . @ . @ . @ . @ . @ . @ . @ . @ . @ . @ . @ = , 3 5 5 5 8 ~ ~ ~ ~ ~ C M :.@.",
"| m B Q ~ ~ ~ / q 0 8 8 5 , > @ @ . @ . @ . @ . @ . @ . @ . @ . @ . @ . @ . @ . @ . @ . @ . @ . * , , 8 r 8 5 ~ ~ ~ ~ ~ I M <.@.",
"} M M ^ ~ ~ ~ / q 0 0 0 3 , > O . @ . @ . @ . @ . @ . @ . @ . @ . @ . @ . @ . @ . @ . @ . @ . @ * , 1 8 8 8 5 Q ~ ~ ~ ~ C M <.@.",
"| M B ~ ~ ~ ~ / q 0 5 5 3 , > O @ . @ . @ . @ . @ . @ . @ . @ . @ . @ . @ . @ . @ . @ . @ . @ . * , , q e 5 8 Q ~ ~ ~ ~ C M <.@.",
"} M B / ~ ~ ~ / q 5 0 0 3 , > @ . @ . @ . @ . @ . @ . @ . @ . @ . @ . @ . @ . @ . @ . @ . @ . @ * , , 8 8 8 5 Q ~ ~ ~ ~ R M <.@.",
"| M M Q ~ ~ ~ / e 0 q 8 3 , > O @ . @ . @ . @ . @ . @ . @ . @ . @ . @ . @ . @ . @ . @ . @ . @ . * , 1 8 8 5 5 Q ~ ~ ~ ~ C M <.@.",
"| M B ~ ~ ~ ~ ^ q 0 8 0 1 1 > @ . @ . @ . @ . @ . @ . @ . @ . @ . @ . @ . @ . @ . @ . @ . @ . @ * , 3 5 5 r 5 ~ ~ ~ ~ ~ C M <.@.",
"| M M ~ ~ ~ ~ ^ q 5 0 5 1 1 > . @ . @ . @ . @ . @ . @ . @ . @ . @ . @ . @ . @ . @ . @ . @ . @ . * , , 8 5 8 5 ~ ~ ~ ~ ~ C M <.@.",
"| M M ^ ~ ~ ~ ^ e 0 5 0 1 1 > O . @ . @ . @ . @ . @ . @ . @ . @ . @ . @ . @ . @ . @ . @ . @ . @ * , 3 5 8 5 8 ~ ~ ~ ~ ~ C M ,.@.",
"| M B ~ ~ ~ ~ ^ 0 0 0 0 3 1 > O @ . @ . @ . @ . @ . @ . @ . @ . @ . @ . @ . @ . @ . @ . @ . @ . * , 3 5 r 8 8 ~ ~ ~ ~ ~ I M ,.$.",
"} M B Q ~ ~ ~ ^ 0 8 8 8 3 , > O . @ . @ . @ . @ . @ . @ . @ . @ . @ . @ . @ . @ . @ . @ . @ X @ * , , 8 7 7 7 ~ ~ ~ ~ ~ C M <.@.",
"| M B Q ~ ~ ~ ^ 0 8 8 8 3 1 > O @ . @ . @ . @ . @ . @ . @ . @ . @ . @ . @ . @ . @ . @ . @ . @ O * , 3 8 8 0 7 ~ ~ ~ ~ ~ C M <.@.",
"} B B Q ~ ~ ^ ^ w 0 0 8 3 1 > O . @ . @ . @ . @ . @ . @ . @ . @ . @ . @ . @ . @ . @ . @ . @ @ O * , , 8 7 7 8 ~ ~ ~ ~ ~ F M ,.O.",
"} m B Q ^ ^ ^ ^ w 0 0 0 3 1 > O @ . @ . @ . @ . @ . @ . @ . @ . @ . @ . @ . @ . @ . @ . @ . O @ * , , q 7 7 7 ~ ~ ~ ~ ~ F M <.$."
};
