/* XPM */
static char *_c70d51860d74652d9cb91cc89809109WRZhykcFDZHH1eS3[] = {
/* columns rows colors chars-per-pixel */
"32 32 182 2 ",
"   c #0B0C0B",
".  c #311D0F",
"X  c #202A1F",
"o  c #38301C",
"O  c #1E1C2B",
"+  c #1A192D",
"@  c #0C1930",
"#  c #1F2925",
"$  c #232B2E",
"%  c #233523",
"&  c #3E3B24",
"*  c #332D3C",
"=  c #2A3834",
"-  c #333B33",
";  c #343B36",
":  c #3F3D3D",
">  c #67041D",
",  c #6D051A",
"<  c #48260B",
"1  c #4A341A",
"2  c #633F1B",
"3  c #43362D",
"4  c #6C332B",
"5  c #73461A",
"6  c #40462D",
"7  c #524124",
"8  c #564325",
"9  c #50492B",
"0  c #5C4D2B",
"q  c #6A4C26",
"w  c #6D4E27",
"e  c #634F2B",
"r  c #6B532D",
"t  c #74552B",
"y  c #70572E",
"u  c #755B31",
"i  c #73623E",
"p  c #1F2A53",
"a  c #303055",
"s  c #303155",
"d  c #273F7B",
"f  c #2D3F79",
"g  c #313D76",
"h  c #4C2747",
"j  c #743558",
"k  c #733468",
"l  c #71356A",
"z  c #783969",
"x  c #32446B",
"c  c #32497B",
"v  c #38517E",
"b  c #464F45",
"n  c #4A474F",
"m  c #464655",
"M  c #4C4A55",
"N  c #66545E",
"B  c #715750",
"V  c #5F675D",
"C  c #617856",
"Z  c #7A7F59",
"A  c #616376",
"S  c #63667A",
"D  c #7C717A",
"F  c #88000E",
"G  c #88000F",
"H  c #99091C",
"J  c #840922",
"K  c #830C27",
"L  c #8B2E2A",
"P  c #98212E",
"I  c #853226",
"U  c #9B3232",
"Y  c #AA5139",
"T  c #934A55",
"R  c #867158",
"E  c #987B5D",
"W  c #8D6C76",
"Q  c #966D7C",
"!  c #8A767D",
"~  c #5B855F",
"^  c #6A855C",
"/  c #7B845D",
"(  c #7C8C5C",
")  c #588770",
"_  c #729075",
"`  c #74A772",
"'  c #77AA74",
"]  c #79AD76",
"[  c #7BB078",
"{  c #AC882E",
"}  c #87845C",
"|  c #84905C",
" . c #A29E56",
".. c #83AC74",
"X. c #84AC74",
"o. c #88AB73",
"O. c #8AAF75",
"+. c #9AA974",
"@. c #9DA974",
"#. c #9DAB78",
"$. c #88B077",
"%. c #98B47C",
"&. c #CBA757",
"*. c #C68F71",
"=. c #D7A47B",
"-. c #CFC163",
";. c #2B4789",
":. c #2B488D",
">. c #30468A",
",. c #3A4689",
"<. c #324989",
"1. c #36558B",
"2. c #3A5C8E",
"3. c #445691",
"4. c #747985",
"5. c #6C7394",
"6. c #717AA2",
"7. c #78AF95",
"8. c #78B196",
"9. c #84868B",
"0. c #868D96",
"q. c #9F8A9A",
"w. c #8CAC85",
"e. c #84B58B",
"r. c #84B38D",
"t. c #8DB189",
"y. c #BDB88C",
"u. c #898BA0",
"i. c #8C8EA4",
"p. c #8F97A4",
"a. c #959AA3",
"s. c #989AB0",
"d. c #999EBF",
"f. c #A89AB2",
"g. c #ABA8B5",
"h. c #A3ABBF",
"j. c #A1BCB7",
"k. c #DAB58C",
"l. c #DFB990",
"z. c #84C18A",
"x. c #87C688",
"c. c #87C689",
"v. c #89C688",
"b. c #8EC788",
"n. c #8AC98A",
"m. c #8BC98A",
"M. c #8AC88E",
"N. c #8DC98F",
"B. c #93CB8B",
"V. c #92CE8D",
"C. c #98CB89",
"Z. c #9DCA8E",
"A. c #8FCC90",
"S. c #88C89A",
"D. c #8DCA98",
"F. c #96CF9A",
"G. c #B3D587",
"H. c #B1DB8E",
"J. c #ADCF93",
"K. c #9AE09B",
"L. c #9BE09B",
"P. c #9DE09B",
"I. c #9DE19B",
"U. c #99E09C",
"Y. c #9AE29C",
"T. c #9BE29D",
"R. c #9CE39E",
"E. c #9CE49F",
"W. c #9DE69F",
"Q. c #A0E39C",
"!. c #A0D6AD",
"~. c #A3DBAF",
"^. c #A2DDAD",
"/. c #A8D2BA",
"(. c #A9D0BD",
"). c #9DE3A1",
"_. c #9EE4A1",
"`. c #9EE4A2",
"'. c #B2B5C7",
"]. c #B1BCD0",
"[. c #B3B8D4",
"{. c #ACC5C6",
/* pixels */
"W.W.W.W.W.W.W.W.W.W.W.W.W.W.W.W.W.W.W.W.W.W.W.W.W.W.W.W.W.W.W.W.",
"W.W.W.W.W.W.W.W.W.W.W.W.W.W.W.W.W.W.W.W.W.W.W.W.W.W.W.W.W.W.W.W.",
"W.W.W.W.W.W.W.W.W.W.W.W.W.W.W.W.W.W.W.W.W.W.W.W.W.W.W.W.W.W.W.W.",
"W.W.W.W.W.W.W.W.W.W.W.W.W.W.W.W.W.W.W.W.W.W.W.W.W.W.W.W.W.W.W.W.",
"W.W.W.W.W.W.W.W.W.W.W.W.W.W.W.W.W.W.T.] ' n.E.W.W.W.W.W.W.W.W.W.",
"W.W.W.W.W.W.W.W.W.W.W.W.W.W.W.W.W.W.] 3 R 6 T.W.W.W.W.W.W.W.W.W.",
"W.W.W.W.W.W.W.W.W.W.W.W.W.W.W.W.W.W.%.E k.i L._.W.W.W.W.W.W.W.W.",
"W.W.W.W.W.W.W.W.W.W.W.W.W.W.W.W._./.J.l.=.y.A.R.E.W.W.W.W.W.W.W.",
"W.W.W.W.W.W.W.W.W.W.W.W.W.W.W.T.j.[.q.Y *.L B _ 0.Z.W.W.W.W.W.W.",
"W.W.W.W.W.W.W.W.W.W.W.W.W.W.W.F.4.s.T G G G Q u.f.#.W.W.W.W.W.W.",
"W.W.W.W.W.W.W.W.W.W.W.W.W.I.+.W i.A h K J j d.3.z @.W.W.W.W.W.W.",
"W.W.W.W.W.W.W.W.W.W.W.W.} I , > * x a g ;.3.6.;.l w.W.W.W.W.W.W.",
"W.W.W.W.W.W.W.W.W.W.W.R./ 4 Z C $ z.1.a c '.5.,.k 8.W.W.W.W.W.W.",
"W.W.W.W.W.W.W.W.W.W.W.W.W.L.o.- ~ R.v <.n N D P H 8.W.W.W.W.W.W.",
"W.W.W.W.W.W.W.W.W.W.W.W.W.L.q ( R.S.c m n 9.t.! U D.W.W.W.W.W.W.",
"W.W.W.W.W.W.W.W.W.W.W.Q.L.| { I.L.2.d + O @ ) !.g.T.W.W.W.W.W.W.",
"W.W.W.W.W.W.W.W.W.W.W.-. .y C.W.7.;.p $ #   ; N._.W.W.W.W.W.W.W.",
"W.W.W.W.W.W.W.W._.~.{.a.&.G.W.W.r.S = c.x.% : V T.W.W.W.W.W.W.W.",
"W.W.W.W.W.W.~.(.].]./.W.Q.H.W.I.p.h.M.W.W.c.X b L.W.W.W.W.W.W.W.",
"W.W.W._.~.{.].(.~._.W.W.W.W.B.^ M e.W.W.W.L.& 1 ..E.W.W.W.W.W.W.",
"W.W.W.^./.~._.W.W.W.W.W.W.L.u 5 t L.W.W.W.T.e < 9 L.W.W.W.W.W.W.",
"W.W.W.W.W.W._.W.W.W.W.W.W.L.8 0 O.T.W.W.W.W.` . ' W.W.W.W.W.W.W.",
"W.W.W.W.W.W.W.W.W.W.W.W.I.X.8 b._.W.W.W.W.W.x.o ' E.W.W.W.W.W.W.",
"W.W.W.W.W.W.W.W.W.W.W.W.P.t w L.W.W.W.W.W.W.W.0 7 x.W.W.W.W.W.W.",
"W.W.W.W.W.W.W.W.W.W.W.W.W.$...V.W.W.W.W.W.W.W.n.' [ L.W.W.W.W.W.",
"W.W.W.W.W.W.W.W.W.W.W.W.W.W.W.W.W.W.W.W.W.W.W.W.W.W.W.W.W.W.W.W.",
"W.W.W.W.W.W.W.W.W.W.W.W.W.W.W.W.W.W.W.W.W.W.W.W.W.W.W.W.W.W.W.W.",
"W.W.W.W.W.W.W.W.W.W.W.W.W.W.W.W.W.W.W.W.W.W.W.W.W.W.W.W.W.W.W.W.",
"W.W.W.W.W.W.W.W.W.W.W.W.W.W.W.W.W.W.W.W.W.W.W.W.W.W.W.W.W.W.W.W.",
"W.W.W.W.W.W.W.W.W.W.W.W.W.W.W.W.W.W.W.W.W.W.W.W.W.W.W.W.W.W.W.W.",
"W.W.W.W.W.W.W.W.W.W.W.W.W.W.W.W.W.W.W.W.W.W.W.W.W.W.W.W.W.W.W.W.",
"W.W.W.W.W.W.W.W.W.W.W.W.W.W.W.W.W.W.W.W.W.W.W.W.W.W.W.W.W.W.W.W."
};
