/* XPM */
static char *e9972749b1604ba0ca2765f7728d976fmP2U2d85hivK9L92[] = {
/* columns rows colors chars-per-pixel */
"64 64 19 1 ",
"  c #0B0C0A",
". c #321E0F",
"X c #191627",
"o c #69001A",
"O c #61330B",
"+ c #74471A",
"@ c #042656",
"# c #595657",
"$ c #9C0000",
"% c #805125",
"& c #A66720",
"* c #E5AF19",
"= c #CB885E",
"- c #2B488D",
"; c #7E808F",
": c #9DE69F",
"> c #EFCEA4",
", c #B3B8D4",
"< c white",
/* pixels */
"::::::::::::::::::::::::::::::::::::::::::::::::::::::::::::::::",
"::::::::::::::::::::::::::::::::::::::::::::::::::::::::::::::::",
"::::::::::::::::::::::::::::::::::::::::::::::::::::::::::::::::",
"::::::::::::::::::::::::::::::::::::::::::::::::::::::::::::::::",
"::::::::::::::::::::::::::::::::::::::::::::::::::::::::::::::::",
"::::::::::::::::::::::::::::::::::::::::::::::::::::::::::::::::",
"::::::::::::::::::::::::::::::::::::::::::::::::::::::::::::::::",
"::::::::::::::::::::::::::::::::::::::::::::::::::::::::::::::::",
"::::::::::::::::::::::::::::::::::::::::::::::::::::::::::::::::",
"::::::::::::::::::::::::::::::::::::::.....:::::::::::::::::::::",
":::::::::::::::::::::::::::::::::::::.X.....::::::::::::::::::::",
":::::::::::::::::::::::::::::::::::::..X>...::::::::::::::::::::",
":::::::::::::::::::::::::::::::::::::..>>>..::::::::::::::::::::",
":::::::::::::::::::::::::::::::::::::=.%&>&.::::::::::::::::::::",
":::::::::::::::::::::::::::::::::::::=>>>=>:::::::::::::::::::::",
"::::::::::::::::::::::::::::::::::,,::=>==>##:::::::::::::::::::",
":::::::::::::::::::::::::::::::::,,,,$$=>>$o##:;;;::::::::::::::",
"::::::::::::::::::::::::::::::::;,,,,o$$$$$o$##..,$:::::::::::::",
"::::::::::::::::::::::::::::::::;;,,;$ooooo$$##.,,$:::::::::::::",
":::::::::::::::::::::::::::::::;X;;;$$$$$$$$$,,,,$$:::::::::::::",
"::::::::::::::::::::::::::::::$,;XXX.o$$$$$o,,---$$:::::::::::::",
"::::::::::::::::::::::::::::$$oo,,,X.-ooooo-,----$$:::::::::::::",
":::::::::::::::::::::::::$$$ooooXXX-..------,----$$:::::::::::::",
"::::::::::::::::::::::::ooooooooXXX--..-----;----$-:::::::::::::",
"::::::::::::::::::::::::oooooooXXXX:--..---<;------:::::::::::::",
":::::::::::::::::::::::::oooo::XXX::---..--<;---$$-:::::::::::::",
"::::::::::::::::::::::::::::::XXXX::----..-+;;$$$$-:::::::::::::",
"::::::::::::::::::::::::::::++XXX:::.---;..++;$$$$-:::::::::::::",
"::::::::::::::::::::::::::::O+++::::-..;...<+;;$$$-:::::::::::::",
"::::::::::::::::::::::::::::OOO::::---XX;X@@::;;$$::::::::::::::",
":::::::::::::::::::::::::::+OO::::----XXXX @@::,,$::::::::::::::",
"::::::::::::::::::::::::::++**::::---XXXXX  @@::,,::::::::::::::",
"::::::::::::::::::::::**:+OO+::::----XXXX     ::::::::::::::::::",
":::::::::::::::::::::::**.++:::::---XXXXX    ##:::::::::::::::::",
":::::::::::::::::::::,;;**:::::::XXXXXX::    ###::::::::::::::::",
":::::::::::::::::::,,,,;;**::::::;,XXX::::   ###::::::::::::::::",
"::::::::::::::::,,,,,,::::*:::::;,,,X::::::   ##::::::::::::::::",
":::::::::::::,,,,,,,::::::::::::;;,;::::::::    ::::::::::::::::",
":::::::::::,,,,,,::::::::::::::XX;;:::::::::    ::::::::::::::::",
":::::::::,,,,,:::::::::::::::++XXXX::::::::: OOOOO::::::::::::::",
":::::::,,,,:::::::::::::::::++++++::::::::::OOOOOO::::::::::::::",
"::::::::::::::::::::::::::::++++++::::::::::OO    ::::::::::::::",
"::::::::::::::::::::::::::::..++++::::::::::: ...:::::::::::::::",
"::::::::::::::::::::::::::::OO..:::::::::::::....:::::::::::::::",
":::::::::::::::::::::::::::OOOO::::::::::::::....:::::::::::::::",
":::::::::::::::::::::::::::OOO::::::::::::::::...:::::::::::::::",
"::::::::::::::::::::::::::OOOO::::::::::::::::.OOO::::::::::::::",
"::::::::::::::::::::::::::O+++::::::::::::::::OO...:::::::::::::",
"::::::::::::::::::::::::::+OOOO::::::::::::::::.....::::::::::::",
"::::::::::::::::::::::::::::::::::::::::::::::::::::::::::::::::",
"::::::::::::::::::::::::::::::::::::::::::::::::::::::::::::::::",
"::::::::::::::::::::::::::::::::::::::::::::::::::::::::::::::::",
"::::::::::::::::::::::::::::::::::::::::::::::::::::::::::::::::",
"::::::::::::::::::::::::::::::::::::::::::::::::::::::::::::::::",
"::::::::::::::::::::::::::::::::::::::::::::::::::::::::::::::::",
"::::::::::::::::::::::::::::::::::::::::::::::::::::::::::::::::",
"::::::::::::::::::::::::::::::::::::::::::::::::::::::::::::::::",
"::::::::::::::::::::::::::::::::::::::::::::::::::::::::::::::::",
"::::::::::::::::::::::::::::::::::::::::::::::::::::::::::::::::",
"::::::::::::::::::::::::::::::::::::::::::::::::::::::::::::::::",
"::::::::::::::::::::::::::::::::::::::::::::::::::::::::::::::::",
"::::::::::::::::::::::::::::::::::::::::::::::::::::::::::::::::",
"::::::::::::::::::::::::::::::::::::::::::::::::::::::::::::::::",
"::::::::::::::::::::::::::::::::::::::::::::::::::::::::::::::::"
};
